<svg width="16" height="16" viewBox="0 0 16 16" fill="none" xmlns="http://www.w3.org/2000/svg">
<path d="M8.75152 4.34096L13.5475 9.82296C14.1135 10.468 13.6535 11.481 12.7945 11.481L3.20252 11.481C3.01028 11.4811 2.82206 11.4259 2.66041 11.3218C2.49876 11.2178 2.37053 11.0693 2.29107 10.8943C2.21162 10.7192 2.18431 10.525 2.21241 10.3348C2.24051 10.1446 2.32283 9.96655 2.44952 9.82196L7.24552 4.34196C7.33938 4.23455 7.45514 4.14846 7.58501 4.08948C7.71489 4.03049 7.85588 3.99998 7.99852 3.99998C8.14117 3.99998 8.28216 4.03049 8.41203 4.08948C8.54191 4.14846 8.65766 4.23455 8.75152 4.34196L8.75152 4.34096Z" fill="white"/>
</svg>
