<svg width="26" height="26" viewBox="0 0 26 26" fill="none" xmlns="http://www.w3.org/2000/svg">
<path d="M8.9375 8.125C8.72201 8.125 8.51535 8.2106 8.36298 8.36298C8.2106 8.51535 8.125 8.72201 8.125 8.9375V17.0625C8.125 17.278 8.2106 17.4847 8.36298 17.637C8.51535 17.7894 8.72201 17.875 8.9375 17.875H17.0625C17.278 17.875 17.4847 17.7894 17.637 17.637C17.7894 17.4847 17.875 17.278 17.875 17.0625V8.9375C17.875 8.72201 17.7894 8.51535 17.637 8.36298C17.4847 8.2106 17.278 8.125 17.0625 8.125H8.9375ZM4.875 7.3125C4.875 6.66603 5.13181 6.04605 5.58893 5.58893C6.04605 5.13181 6.66603 4.875 7.3125 4.875H18.6875C19.334 4.875 19.954 5.13181 20.4111 5.58893C20.8682 6.04605 21.125 6.66603 21.125 7.3125V18.6875C21.125 19.334 20.8682 19.954 20.4111 20.4111C19.954 20.8682 19.334 21.125 18.6875 21.125H7.3125C6.66603 21.125 6.04605 20.8682 5.58893 20.4111C5.13181 19.954 4.875 19.334 4.875 18.6875V7.3125ZM18.6875 6.5H7.3125C7.09701 6.5 6.89035 6.5856 6.73798 6.73798C6.5856 6.89035 6.5 7.09701 6.5 7.3125V18.6875C6.5 18.903 6.5856 19.1097 6.73798 19.262C6.89035 19.4144 7.09701 19.5 7.3125 19.5H18.6875C18.903 19.5 19.1097 19.4144 19.262 19.262C19.4144 19.1097 19.5 18.903 19.5 18.6875V7.3125C19.5 7.09701 19.4144 6.89035 19.262 6.73798C19.1097 6.5856 18.903 6.5 18.6875 6.5Z" fill="#F66B6B"/>
</svg>
