<svg width="32" height="32" viewBox="0 0 32 32" fill="none" xmlns="http://www.w3.org/2000/svg">
<path d="M30 25L28.586 23.586L26 26.172V18H24V26.172L21.414 23.586L20 25L25 30L30 25Z" fill="#2E2E2E"/>
<path d="M18 28.0001H8V4.0001H16V10.0001C16.0016 10.53 16.2128 11.0378 16.5875 11.4126C16.9623 11.7873 17.4701 11.9985 18 12.0001H24V15.0001H26V10.0001C26.0035 9.86867 25.9785 9.73804 25.9268 9.6172C25.875 9.49636 25.7976 9.38818 25.7 9.3001L18.7 2.3001C18.612 2.20244 18.5038 2.12505 18.3829 2.07325C18.2621 2.02146 18.1314 1.9965 18 2.0001H8C7.47005 2.00168 6.96227 2.2129 6.58753 2.58763C6.2128 2.96236 6.00158 3.47015 6 4.0001V28.0001C6.00158 28.53 6.2128 29.0378 6.58753 29.4126C6.96227 29.7873 7.47005 29.9985 8 30.0001H18V28.0001ZM18 4.4001L23.6 10.0001H18V4.4001Z" fill="#2E2E2E"/>
</svg>
