<svg width="16" height="12" viewBox="0 0 16 12" fill="none" xmlns="http://www.w3.org/2000/svg">
<path fill-rule="evenodd" clip-rule="evenodd" d="M15.9861 3.53027C15.7185 3.78688 15.4152 4.01238 15.0941 4.20678C13.6043 5.08547 12.1056 5.97193 10.6515 6.8895C9.90213 7.37161 8.97436 7.96259 8.00199 7.96259H7.99307H7.98415C7.01178 7.96259 6.08401 7.37161 5.33466 6.8895C3.88056 5.96416 2.38186 5.08547 0.901004 4.20678C0.570933 4.01238 0.267625 3.78688 0 3.53027V9.70441C0 10.3887 0.6423 10.9486 1.42733 10.9486H14.5588C15.3438 10.9486 15.9861 10.3887 15.9861 9.70441V3.53027Z" fill="#FFFDFD"/>
<path fill-rule="evenodd" clip-rule="evenodd" d="M15.9861 1.24416C15.9861 0.559871 15.3349 0 14.5588 0H1.42733C0.472804 0 0 0.653183 0 1.41523C0 2.12284 0.901004 3.00153 1.53438 3.37478C2.91711 4.21458 4.31768 5.05439 5.70041 5.90197C6.28027 6.25189 7.26156 6.96728 7.98415 6.96728H7.99307H8.00199C8.72458 6.96728 9.70587 6.25189 10.2857 5.90197C11.6685 5.05439 13.069 4.21458 14.4607 3.37478C15.2457 2.90044 15.9861 2.11507 15.9861 1.24416Z" fill="#FFFDFD"/>
</svg>
