<svg width="12" height="15" viewBox="0 0 12 15" fill="none" xmlns="http://www.w3.org/2000/svg">
<path fill-rule="evenodd" clip-rule="evenodd" d="M5.60917 0C8.70955 0 11.2183 2.18465 11.2183 4.88446C11.2183 5.46639 11.1417 6.06741 10.8568 6.59211L6.86904 13.976C6.63898 14.3958 6.13503 14.6534 5.60917 14.6534C5.08331 14.6534 4.57936 14.3958 4.36025 13.976L0.361529 6.59211C0.0766879 6.06741 0 5.46639 0 4.88446C0 2.18465 2.50879 0 5.60917 0ZM5.60922 7.32666C7.15394 7.32666 8.41381 6.22956 8.41381 4.88443C8.41381 3.5393 7.15394 2.4422 5.60922 2.4422C4.06451 2.4422 2.80464 3.5393 2.80464 4.88443C2.80464 6.22956 4.06451 7.32666 5.60922 7.32666Z" fill="#FFFBFB"/>
</svg>
