<svg width="17" height="15" viewBox="0 0 17 15" fill="none" xmlns="http://www.w3.org/2000/svg">
<path fill-rule="evenodd" clip-rule="evenodd" d="M8.21868 7.48949C10.1438 5.73108 10.8449 4.61309 10.3221 4.1355C10.2983 4.11379 10.2508 4.07037 10.1795 4.00525C9.82296 3.67962 9.57935 3.41912 9.44863 3.22374C9.31791 3.02836 9.29414 2.73529 9.37733 2.34454C9.46051 1.95378 9.75166 1.47619 10.2508 0.911764C10.4884 0.651259 10.7083 0.439601 10.9103 0.276785C11.1123 0.11397 11.3203 0.0271359 11.5342 0.0162815C11.7481 0.00542711 11.9264 0 12.069 0C12.2116 0 12.3839 0.0705525 12.5859 0.211659C12.7879 0.352766 12.9305 0.450455 13.0137 0.504726C13.0969 0.558998 13.2514 0.694676 13.4772 0.911764C13.7029 1.12885 13.8277 1.24825 13.8515 1.26996C14.4219 1.79097 14.3863 2.84383 13.7445 4.42857C13.1028 6.01331 11.8907 7.60888 10.1082 9.21533C8.32562 10.8435 6.57281 11.956 4.84969 12.553C3.12656 13.15 1.97981 13.188 1.40939 12.667C1.38562 12.6453 1.24896 12.5259 0.999408 12.3088C0.749852 12.0917 0.601309 11.956 0.553774 11.9018C0.50624 11.8475 0.399289 11.7173 0.232918 11.511C0.0665472 11.3048 -0.0106953 11.1365 0.00118838 11.0063C0.013072 10.876 0.0249555 10.7132 0.0368391 10.5178C0.0487227 10.3225 0.137849 10.1325 0.304219 9.948C0.47059 9.76347 0.696376 9.56267 0.981583 9.34558C1.4807 8.97653 1.89662 8.72146 2.22936 8.58035C2.5621 8.43924 2.88295 8.42839 3.19193 8.54779C3.5009 8.66718 3.70886 8.76487 3.81581 8.84085C3.92277 8.91683 4.15449 9.11764 4.511 9.44327C5.03388 9.92086 6.26976 9.26961 8.21868 7.48949Z" fill="white"/>
</svg>
